<?xml version="1.0" standalone="no"?>
<!DOCTYPE svg PUBLIC "-//W3C//DTD SVG 20010904//EN"
 "http://www.w3.org/TR/2001/REC-SVG-20010904/DTD/svg10.dtd">
<svg version="1.0" xmlns="http://www.w3.org/2000/svg"
 width="550.000000pt" height="491.000000pt" viewBox="0 0 550.000000 491.000000"
 preserveAspectRatio="xMidYMid meet">
<metadata>
Created by potrace 1.16, written by Peter Selinger 2001-2019
</metadata>
<g transform="translate(0.000000,491.000000) scale(0.100000,-0.100000)"
fill="#000000" stroke="none">
<path d="M1560 4696 c0 -8 -9 -17 -19 -21 -11 -3 -22 -12 -25 -20 -3 -8 -12
-15 -21 -15 -8 0 -15 -7 -15 -15 0 -8 -9 -15 -20 -15 -11 0 -20 -7 -20 -15 0
-8 -4 -15 -10 -15 -5 0 -10 -20 -10 -45 0 -25 5 -45 10 -45 6 0 10 -9 10 -19
0 -11 7 -26 15 -35 8 -8 15 -19 15 -24 0 -6 -7 -12 -15 -16 -8 -3 -15 -15 -15
-26 0 -11 -4 -20 -8 -20 -4 0 -13 -13 -19 -30 -6 -16 -18 -30 -27 -30 -9 0
-16 -7 -16 -15 0 -9 -9 -15 -25 -15 -16 0 -25 -6 -25 -15 0 -8 -9 -15 -19 -15
-10 0 -21 -7 -25 -15 -3 -8 -12 -15 -21 -15 -8 0 -14 -4 -13 -8 2 -5 -25 -37
-59 -71 -66 -65 -78 -98 -48 -127 10 -10 15 -35 15 -69 0 -34 5 -59 15 -69 8
-8 15 -21 15 -29 0 -8 7 -17 15 -21 8 -3 15 -17 15 -31 0 -16 6 -25 15 -25 12
0 15 -13 15 -55 0 -34 6 -65 16 -80 l16 -25 -41 0 c-32 0 -39 -3 -35 -15 5
-13 -8 -15 -82 -16 -55 -1 -78 -4 -59 -8 25 -5 27 -8 12 -14 -10 -4 -45 -7
-76 -7 -51 0 -59 -3 -71 -25 -7 -14 -17 -25 -22 -25 -4 0 -8 -9 -8 -20 0 -11
-7 -20 -15 -20 -8 0 -15 -7 -15 -15 0 -8 -7 -15 -15 -15 -8 0 -15 -7 -15 -15
0 -8 -4 -15 -10 -15 -5 0 -12 -11 -16 -25 -3 -14 -12 -25 -20 -25 -8 0 -14 -9
-14 -20 0 -11 -7 -20 -15 -20 -8 0 -14 -6 -12 -12 1 -7 -4 -12 -10 -11 -7 2
-13 -3 -13 -10 0 -8 -9 -22 -20 -32 -11 -10 -20 -24 -20 -30 0 -7 -7 -16 -16
-19 -8 -3 -12 -10 -9 -16 3 -5 -1 -10 -9 -10 -9 0 -16 -7 -16 -15 0 -8 -7 -15
-15 -15 -8 0 -15 -7 -15 -15 0 -8 -7 -15 -15 -15 -8 0 -15 -7 -15 -15 0 -8 -7
-15 -15 -15 -8 0 -15 -7 -15 -15 0 -8 -7 -15 -15 -15 -8 0 -15 -7 -15 -15 0
-8 -7 -15 -15 -15 -8 0 -15 -5 -15 -11 0 -6 -12 -23 -27 -39 -67 -70 -93 -100
-93 -110 0 -5 -7 -10 -15 -10 -8 0 -15 -4 -15 -10 0 -5 -14 -23 -30 -40 -17
-17 -30 -40 -30 -51 0 -15 -5 -19 -15 -15 -10 3 -14 -1 -13 -12 3 -39 -2 -54
-17 -48 -10 3 -14 -1 -13 -12 3 -40 -2 -54 -18 -48 -12 4 -14 1 -9 -14 5 -14
2 -20 -9 -20 -9 0 -16 -7 -16 -15 0 -8 -4 -15 -9 -15 -14 0 -81 -65 -81 -79 0
-6 -7 -11 -15 -11 -8 0 -15 -7 -15 -15 0 -8 -7 -15 -15 -15 -22 0 -26 -31 -23
-210 l3 -164 25 -6 c14 -4 24 -12 22 -18 -1 -7 12 -12 33 -12 24 0 35 -5 35
-15 0 -11 11 -15 36 -15 28 0 35 -3 30 -15 -4 -11 2 -15 28 -15 29 0 34 -3 34
-26 0 -15 3 -29 8 -33 5 -3 15 -16 22 -28 12 -22 11 -23 -33 -23 -30 0 -44 -4
-43 -12 2 -7 -7 -14 -20 -16 -13 -2 -26 -10 -29 -18 -3 -8 -14 -14 -24 -14
-10 0 -19 -7 -19 -15 0 -8 -9 -15 -19 -15 -10 0 -21 -7 -25 -15 -3 -8 -17 -15
-31 -15 -15 0 -24 -4 -20 -9 3 -5 1 -12 -5 -16 -6 -4 -10 -65 -10 -156 l0
-149 65 0 c53 0 63 -3 59 -15 -4 -8 -3 -26 0 -40 5 -18 13 -25 32 -25 13 0 27
-7 30 -15 4 -8 18 -15 33 -15 l26 0 -4 -80 c-2 -64 0 -80 10 -78 10 2 15 -12
17 -52 2 -35 9 -58 18 -63 8 -4 14 -17 14 -27 0 -11 6 -20 14 -20 9 0 16 -12
18 -27 3 -26 7 -28 51 -31 26 -2 47 1 47 7 0 5 19 12 41 16 51 9 251 -4 244
-15 -3 -5 26 -10 65 -12 54 -2 70 0 70 10 0 8 9 16 20 19 11 3 20 12 20 19 0
8 9 14 20 14 11 0 20 4 20 9 0 5 9 13 20 16 11 3 23 17 26 31 3 13 12 24 20
24 8 0 14 7 14 15 0 8 5 15 10 15 6 0 10 7 10 15 0 11 12 15 48 15 29 0 42 3
34 9 -21 13 10 21 84 21 46 0 63 4 61 13 -1 7 12 13 33 15 33 3 34 3 18 -15
-9 -10 -15 -27 -13 -38 2 -11 4 -31 5 -45 2 -24 3 -23 10 5 6 25 8 20 10 -30
1 -33 1 -72 0 -87 -1 -16 5 -30 17 -36 15 -9 18 -22 16 -82 -2 -60 -1 -70 11
-61 11 9 15 3 20 -32 4 -24 4 -51 0 -61 -3 -9 -3 -16 2 -14 14 5 53 -39 60
-67 3 -14 10 -22 15 -19 5 3 13 -4 17 -15 4 -11 12 -21 17 -21 6 -1 9 -6 7
-11 -1 -5 5 -12 13 -15 8 -4 15 -12 15 -19 0 -7 7 -15 15 -19 10 -3 15 -19 15
-46 0 -26 4 -39 12 -37 8 1 15 -14 18 -38 5 -39 6 -40 49 -43 32 -2 47 1 53
12 7 13 27 16 92 16 65 0 85 3 90 15 3 8 16 15 30 15 13 0 26 7 30 15 3 8 16
15 30 15 13 0 26 7 30 15 4 11 20 15 55 15 34 0 51 4 55 15 4 12 25 15 99 15
102 0 117 -7 117 -52 0 -16 7 -31 15 -34 8 -4 15 -18 15 -34 0 -16 7 -30 15
-34 8 -3 15 -17 15 -31 0 -16 6 -25 15 -25 9 0 15 -9 15 -25 0 -14 7 -28 15
-31 8 -4 15 -15 15 -25 0 -11 7 -22 15 -25 8 -4 15 -15 15 -26 0 -10 5 -16 10
-13 6 3 13 0 16 -8 3 -9 17 -18 32 -22 20 -5 23 -8 11 -16 -17 -10 -8 -12 54
-9 47 2 99 -9 92 -20 -8 -13 151 -23 305 -18 121 3 143 6 151 21 6 9 21 17 33
17 13 0 26 7 30 15 3 9 18 15 36 15 18 0 29 4 25 10 -3 5 7 13 22 16 15 4 34
13 41 21 20 19 141 18 148 -2 8 -21 90 -21 98 0 3 8 17 15 31 15 14 0 25 5 25
10 0 6 11 10 24 10 13 0 26 7 30 15 3 9 18 15 36 15 20 0 30 5 30 15 0 10 10
15 30 15 19 0 29 5 27 13 -1 7 12 13 36 15 24 2 37 8 37 18 0 10 12 14 40 14
29 0 40 4 40 15 0 11 11 15 39 15 25 0 41 5 45 15 4 11 24 15 83 16 47 0 70 3
58 8 -14 6 -7 9 29 14 27 4 62 7 77 7 29 0 29 0 29 65 0 53 -3 63 -15 59 -12
-5 -15 2 -15 32 0 31 -7 44 -45 81 -25 23 -45 48 -45 53 0 6 -5 8 -11 5 -6 -4
-13 2 -16 14 -3 12 -12 21 -20 21 -9 0 -13 6 -9 15 3 9 0 15 -9 15 -8 0 -15 7
-15 15 0 8 -9 15 -20 15 -11 0 -20 7 -20 15 0 10 -10 15 -29 15 -16 0 -31 6
-35 15 -3 8 -17 15 -31 15 -14 0 -25 5 -25 10 0 6 -10 10 -23 10 -28 0 -57 33
-57 65 0 15 -6 25 -15 25 -10 0 -15 15 -17 58 -2 39 -7 56 -15 55 -9 -2 -13
12 -13 47 0 29 -5 50 -11 50 -6 0 -17 7 -25 15 -9 8 -26 15 -40 15 -13 0 -24
5 -24 10 0 6 -15 10 -34 10 -42 0 -46 10 -46 106 0 41 -4 74 -9 74 -5 0 -12
13 -16 30 -4 16 -11 30 -16 30 -5 0 -9 9 -9 20 0 10 -8 24 -19 29 -13 7 -17
18 -14 36 3 14 9 25 14 25 5 0 9 6 9 13 0 7 9 20 20 30 23 20 27 65 5 73 -8 4
-15 12 -15 20 0 8 -9 14 -20 14 -11 0 -20 7 -20 15 0 8 -7 15 -15 15 -8 0 -15
7 -15 15 0 8 -6 15 -14 15 -10 0 -12 11 -8 45 4 36 2 45 -9 43 -11 -2 -15 17
-17 91 -3 103 2 136 19 111 6 -10 9 8 8 57 -2 67 0 73 27 98 16 15 28 31 26
36 -1 5 5 9 13 9 8 0 15 7 15 15 0 8 7 15 15 15 8 0 15 7 15 15 0 8 7 15 15
15 8 0 15 7 15 15 0 8 7 15 15 15 8 0 14 3 13 8 -4 13 23 52 36 52 8 0 16 -7
20 -15 3 -8 12 -15 21 -15 8 0 15 -7 15 -15 0 -9 9 -15 21 -15 15 0 19 -5 15
-15 -5 -13 11 -15 109 -15 98 0 114 2 109 15 -4 10 0 15 15 15 12 0 21 6 21
15 0 8 7 15 15 15 8 0 15 7 15 15 0 8 9 15 20 15 11 0 20 7 20 15 0 8 9 15 20
15 11 0 23 -7 26 -15 4 -8 12 -15 19 -15 7 0 15 -7 19 -15 3 -8 12 -15 21 -15
8 0 15 -7 15 -15 0 -8 9 -15 19 -15 10 0 21 -7 25 -15 3 -8 12 -15 21 -15 8 0
15 -7 15 -15 0 -12 13 -15 55 -15 42 0 55 3 55 15 0 8 9 15 20 15 11 0 20 7
20 15 0 9 9 15 25 15 18 0 23 4 19 15 -4 10 0 15 10 15 9 0 19 7 22 15 4 8 12
15 20 15 11 0 14 21 14 100 0 80 3 102 15 106 10 4 15 20 15 45 0 33 4 40 25
45 14 3 25 10 25 15 0 5 12 9 26 9 38 0 74 38 74 78 0 22 5 32 15 32 11 0 15
12 15 50 0 29 5 50 11 50 5 0 8 4 4 9 -3 5 -1 12 4 15 13 8 42 -4 35 -15 -3
-5 21 -9 53 -9 60 0 93 -19 93 -55 0 -8 5 -15 11 -15 5 0 7 -4 4 -10 -3 -5 -1
-10 4 -10 6 0 11 -7 11 -15 0 -12 17 -15 93 -14 61 1 84 4 67 9 -33 11 -16 17
55 19 33 1 45 5 45 16 0 8 7 15 15 15 8 0 15 7 15 15 0 8 7 15 15 15 8 0 14 6
12 13 -1 7 11 13 28 15 17 2 34 10 38 18 4 8 19 14 32 14 14 0 34 8 45 17 18
15 20 30 20 120 l0 103 -79 0 -80 0 2 111 c1 72 -3 113 -10 117 -6 4 -15 20
-18 35 -4 15 -11 27 -16 27 -5 0 -9 6 -9 13 0 7 -9 20 -20 30 -11 9 -20 24
-20 32 0 8 -6 14 -12 12 -8 -1 -12 8 -10 25 2 14 -2 29 -7 33 -7 4 -9 -1 -5
-12 5 -17 5 -17 -9 0 -8 9 -22 17 -31 17 -9 0 -16 7 -16 15 0 11 -12 15 -50
15 -35 0 -49 4 -47 13 1 8 -13 13 -40 15 -24 2 -43 7 -43 13 0 5 -9 9 -20 9
-11 0 -23 7 -26 15 -4 8 -17 15 -30 15 -14 0 -27 7 -30 15 -4 8 -15 15 -25 15
-11 0 -22 7 -25 15 -4 8 -14 15 -25 15 -10 0 -22 6 -26 14 -4 8 -17 15 -28 18
-11 2 -20 8 -20 15 0 6 -11 20 -23 32 -13 11 -21 25 -17 30 4 7 -7 11 -29 11
-25 0 -36 4 -36 15 0 9 -9 15 -25 15 -16 0 -25 6 -25 15 0 9 -9 15 -25 15 -16
0 -25 6 -25 15 0 8 -7 15 -15 15 -8 0 -15 7 -15 15 0 8 -4 15 -10 15 -5 0 -10
13 -10 28 0 16 -9 39 -20 52 -11 13 -20 27 -20 32 0 4 -14 8 -31 8 -17 0 -28
4 -24 10 6 9 -33 16 -60 10 -23 -4 -95 12 -90 21 4 5 -23 9 -65 9 -54 0 -72 4
-76 15 -5 11 -23 15 -71 15 -35 0 -62 -4 -59 -9 9 -15 -21 -21 -101 -21 -42 0
-73 -3 -70 -7 4 -4 -6 -12 -23 -19 -26 -11 -30 -18 -30 -54 0 -29 -4 -40 -15
-40 -11 0 -15 -11 -15 -40 0 -25 -5 -43 -14 -46 -7 -3 -16 -23 -20 -45 -5 -30
-11 -39 -26 -39 -11 0 -20 -7 -20 -15 0 -8 -7 -15 -15 -15 -8 0 -15 -7 -15
-15 0 -12 -14 -15 -62 -15 -38 0 -58 -4 -50 -9 10 -6 8 -10 -9 -14 -16 -4 -30
1 -47 18 -14 14 -21 25 -16 26 5 0 -1 4 -14 10 -13 5 -20 13 -17 19 3 6 -3 10
-15 10 -16 0 -20 5 -16 15 4 13 -8 15 -79 15 -69 0 -85 3 -85 15 0 18 -67 88
-92 98 -10 3 -18 11 -18 17 0 5 -10 10 -22 10 -29 0 -52 15 -45 27 4 6 -3 8
-17 6 -13 -3 -30 2 -39 11 -8 9 -20 16 -26 16 -6 0 -11 7 -11 15 0 8 -7 15
-15 15 -8 0 -15 6 -15 14 0 8 -7 16 -15 20 -8 3 -15 17 -15 31 0 16 -6 25 -15
25 -8 0 -15 7 -15 15 0 8 -7 15 -15 15 -8 0 -15 9 -15 20 0 12 -11 31 -25 44
-14 13 -25 31 -25 40 0 9 -6 16 -14 16 -8 0 -17 14 -21 30 -4 17 -11 27 -16
24 -6 -3 -13 3 -16 15 -5 21 -10 21 -245 21 -159 0 -237 3 -233 10 4 6 -7 13
-24 16 -17 4 -31 10 -31 15 0 5 -10 9 -21 9 -24 0 -89 63 -89 86 0 8 -4 14 -9
14 -6 0 -16 12 -23 28 l-13 27 -213 3 c-180 2 -212 0 -212 -12z m-100 -1270
c0 -8 8 -17 18 -21 17 -5 73 -108 72 -133 0 -8 9 -26 19 -41 11 -15 25 -48 32
-74 8 -32 17 -47 28 -47 58 -1 1607 185 1613 193 4 7 19 7 46 -1 42 -13 56
-37 46 -79 -3 -12 2 -35 11 -51 16 -26 16 -33 2 -80 -8 -29 -11 -52 -6 -52 16
0 9 -39 -8 -49 -10 -6 -12 -11 -5 -11 16 0 16 -32 0 -48 -10 -10 -10 -14 0
-21 16 -10 6 -101 -12 -113 -8 -5 -7 -8 2 -8 16 0 15 -45 -2 -92 -8 -23 -10
-38 -4 -38 13 0 0 -113 -14 -121 -7 -4 -6 -9 1 -13 14 -9 3 -108 -13 -118 -7
-5 -7 -8 2 -8 20 0 4 -108 -19 -131 -11 -11 -19 -24 -19 -30 0 -7 -14 -10 -37
-7 -26 3 -42 -1 -55 -14 -19 -19 -58 -25 -58 -8 0 6 -7 10 -15 10 -9 0 -15 -9
-15 -21 0 -20 -4 -21 -49 -16 -39 5 -51 3 -55 -10 -5 -12 -15 -14 -51 -9 -37
6 -45 4 -45 -8 0 -19 -52 -35 -58 -18 -6 19 -30 14 -43 -9 -9 -18 -17 -21 -52
-16 -28 4 -44 1 -51 -8 -14 -18 -66 -31 -66 -16 0 6 -7 11 -15 11 -9 0 -15 -9
-15 -21 0 -20 -4 -21 -50 -15 -42 6 -50 4 -50 -10 0 -14 -7 -15 -46 -9 -40 6
-48 4 -61 -14 -15 -22 -43 -29 -43 -11 0 20 -42 10 -47 -11 -5 -19 -11 -21
-54 -15 -42 6 -49 4 -49 -10 0 -14 -7 -16 -45 -11 -36 5 -45 4 -45 -8 0 -18
-48 -31 -62 -17 -17 17 -38 2 -38 -28 0 -25 4 -28 40 -32 22 -2 47 0 56 5 8 5
37 6 63 2 38 -5 49 -3 54 9 7 19 73 32 90 18 16 -14 67 -3 67 14 0 16 20 18
98 15 44 -3 57 1 74 19 18 20 26 21 92 15 62 -6 75 -4 91 11 14 14 35 19 95
20 107 2 178 13 225 34 61 28 97 32 128 16 27 -15 57 -12 57 5 0 14 43 10 63
-5 19 -15 23 -62 6 -68 -8 -3 -6 -10 5 -21 13 -12 16 -26 11 -47 -7 -31 -8
-32 -85 -35 -25 -1 -96 -7 -159 -15 -95 -11 -114 -16 -118 -31 -5 -16 -16 -18
-110 -17 -99 1 -106 0 -122 -21 -17 -22 -22 -23 -95 -16 -74 7 -77 7 -83 -15
-6 -21 -10 -22 -67 -15 -68 7 -96 0 -96 -22 0 -13 -10 -15 -66 -9 -60 6 -66 5
-71 -13 -5 -19 -12 -20 -96 -18 -64 1 -91 -2 -94 -10 -3 -9 -22 -11 -66 -7
-78 8 -137 32 -137 56 0 10 -6 18 -14 18 -21 0 -28 28 -21 85 6 41 3 55 -10
68 -14 15 -15 24 -4 74 15 76 13 95 -11 140 -11 21 -25 55 -31 76 -5 20 -14
37 -19 37 -6 0 -10 11 -10 24 0 14 -4 27 -9 31 -5 3 -12 19 -16 35 -4 17 -11
30 -16 30 -5 0 -9 8 -9 18 0 9 -11 40 -24 67 -60 125 -76 161 -76 172 0 7 -11
33 -25 59 -14 26 -25 55 -25 65 0 11 -3 19 -7 19 -9 0 -33 48 -33 65 0 13 -30
77 -39 85 -3 3 -15 31 -25 63 -11 31 -23 57 -28 57 -4 0 -8 10 -8 23 0 12 -7
31 -15 41 -8 11 -15 28 -15 38 0 10 -4 18 -10 18 -5 0 -10 8 -10 19 0 26 -56
33 -111 15 -27 -10 -57 -13 -81 -9 -25 4 -38 3 -38 -4 0 -25 -50 -10 -74 22
-29 37 -32 53 -14 59 10 4 10 10 0 32 -17 38 -15 64 7 88 15 15 27 19 45 14
14 -3 26 -3 26 2 0 9 306 46 318 38 5 -3 14 -1 22 5 22 13 40 11 40 -5z m1696
-1659 c55 -24 114 -70 120 -93 4 -13 11 -24 16 -24 5 0 9 -15 7 -32 -1 -18 2
-41 6 -51 11 -27 -4 -88 -32 -129 -28 -41 -88 -82 -109 -74 -7 3 -14 1 -16 -3
-2 -5 -20 -11 -40 -15 -28 -5 -38 -3 -38 6 0 10 -3 9 -9 -1 -8 -13 -15 -13
-53 -1 -45 15 -87 40 -88 53 0 4 -11 24 -23 45 -45 71 -41 195 8 234 13 10 27
27 30 38 3 10 19 21 35 25 17 4 30 11 30 17 0 7 15 8 40 4 25 -4 40 -2 40 4 0
14 42 13 76 -3z m-1025 -156 c14 -14 34 -33 45 -41 27 -21 44 -76 44 -144 0
-82 -37 -154 -88 -170 -12 -4 -22 -12 -22 -17 0 -14 -40 -11 -41 4 0 6 -5 2
-11 -10 -12 -24 -61 -33 -73 -13 -4 6 -10 8 -15 5 -30 -18 -150 55 -150 91 0
7 -6 17 -14 21 -36 22 -24 175 19 221 14 15 25 32 25 39 0 7 6 13 14 13 8 0
16 5 18 12 2 6 26 12 55 12 28 1 55 5 59 9 16 16 109 -6 135 -32z"/>
<path d="M2895 3029 c-82 -10 -155 -17 -160 -15 -11 4 15 -258 27 -270 4 -4
79 1 166 11 l158 18 -4 30 c-3 18 1 33 9 38 10 6 11 9 1 9 -15 0 -5 111 12
122 7 5 6 8 -3 8 -10 0 -12 9 -8 35 7 42 19 41 -198 14z"/>
<path d="M2397 2972 l-129 -15 7 -56 c6 -47 10 -93 18 -198 2 -20 6 -22 37
-18 56 8 287 35 298 35 7 0 7 12 0 36 -5 21 -8 48 -5 61 2 14 1 37 -4 51 -5
15 -11 48 -14 75 -6 47 -6 47 -43 46 -20 -1 -95 -9 -165 -17z"/>
<path d="M1910 2914 c-102 -12 -186 -23 -187 -23 -8 -2 -1 -31 7 -31 6 0 10
-7 10 -15 0 -8 4 -23 10 -33 5 -9 16 -35 25 -57 9 -22 21 -48 26 -57 5 -10 9
-27 9 -37 0 -11 5 -23 10 -26 13 -8 332 25 344 36 8 7 -6 182 -20 247 -5 27 5
27 -234 -4z"/>
<path d="M2895 2653 c-66 -9 -121 -17 -123 -18 -4 -3 16 -182 23 -221 6 -29
88 -42 112 -18 12 11 26 14 54 9 32 -6 39 -4 39 9 0 9 12 18 28 22 40 10 43
13 30 33 -6 11 -8 26 -3 37 4 11 7 31 6 47 -2 16 2 27 10 27 10 0 10 3 1 12
-7 7 -12 21 -12 33 0 12 5 26 12 33 15 15 -16 14 -177 -5z"/>
<path d="M2450 2601 l-135 -16 3 -40 c2 -22 7 -75 12 -119 6 -43 7 -83 4 -88
-9 -14 25 -78 42 -78 9 0 23 7 31 16 12 12 27 14 54 10 32 -5 37 -3 42 15 5
19 11 21 48 16 30 -4 46 -1 57 10 11 10 26 13 51 8 20 -3 31 -2 25 2 -6 4 -15
42 -19 83 -7 65 -9 96 -14 183 -1 21 -15 21 -201 -2z"/>
<path d="M2018 2551 c-128 -16 -171 -27 -140 -38 6 -3 12 -13 12 -23 0 -10 7
-31 15 -47 23 -45 54 -117 79 -180 22 -57 23 -58 69 -66 38 -6 51 -4 64 9 11
11 26 14 45 10 20 -4 35 -1 45 10 15 14 15 30 -1 172 -10 87 -20 160 -23 165
-2 4 -10 6 -16 6 -7 -1 -74 -9 -149 -18z"/>
</g>
</svg>
